<svg width="300" height="180" xmlns="http://www.w3.org/2000/svg" xmlns:xlink="http://www.w3.org/1999/xlink">
<defs>
<linearGradient y2="1" x2="1" y1="0" x1="0" id="bankdirectGradient">
<stop offset="0" stop-color="#c9daa7"/>
<stop offset="0.5" stop-color="#ebf1de"/>
<stop offset="1" stop-color="#c9daa7"/>
</linearGradient>
<linearGradient x2="1" x1="0" id="bankPillar">
<stop stop-color="#707070" offset="0"/>
<stop stop-color="#ffffff" offset="0.5"/>
<stop stop-color="#707070" offset="1"/>
</linearGradient>
<filter width="200%" height="200%" x="-50%" y="-50%" id="bankShaddow">
<feGaussianBlur stdDeviation="0.68"/>
</filter>
</defs>
<rect x="0" y="0" width="300" height="180" fill="url(#bankdirectGradient)"/>
<text x="30" y="141.3" font-family="Sans-serif" font-size="20">Luke Skywalker</text>
<text x="30" y="163.3" font-family="Noto Sans" font-size="15" font-weight="500">1234 1234 1234 1234</text>
<rect x="14" y="14" width="138" height="98" stroke="#000000" stroke-width="1.2" fill="#ffffff"/>
<ellipse cx="83" cy="63" rx="60" ry="40" stroke="#f20707" stroke-width="2" fill="none"/>
<text x="83" y="59" font-family="Sans-serif" font-size="18" text-anchor="middle">BANK</text>
<text x="83" y="77" font-family="Sans-serif" font-size="18" text-anchor="middle">DIRECT</text>
<rect x="25.08" y="30" width="25.84" height="10.47" fill="#ffffff"/>
<rect x="25.08" y="30" width="3.74" height="10.47" fill="url(#bankPillar)"/>
<rect x="32.44" y="30" width="3.74" height="10.47" fill="url(#bankPillar)"/>
<rect x="39.81" y="30" width="3.74" height="10.47" fill="url(#bankPillar)"/>
<rect x="47.18" y="30" width="3.74" height="10.47" fill="url(#bankPillar)"/>
<path stroke="#404040" stroke-width="0.5" fill="#e0e0e0" d="M 22.7,26.1 L 38,21 53.3,26.1" stroke-linecap="round"/>
<rect x="22.7" y="26.35" width="30.6" height="3.4" stroke="#404040" stroke-width="0.5" fill="#f2f2f2"/>
<rect x="21" y="42.76" width="34" height="2.04" stroke="#404040" stroke-width="0.5" fill="#f2f2f2"/>
<rect x="22.7" y="40.72" width="30.6" height="2.04" stroke="#404040" stroke-width="0.5" fill="#f2f2f2"/>
<rect x="25.08" y="90.2" width="25.84" height="10.47" fill="#ffffff"/>
<rect x="25.08" y="90.2" width="3.74" height="10.47" fill="url(#bankPillar)"/>
<rect x="32.44" y="90.2" width="3.74" height="10.47" fill="url(#bankPillar)"/>
<rect x="39.81" y="90.2" width="3.74" height="10.47" fill="url(#bankPillar)"/>
<rect x="47.18" y="90.2" width="3.74" height="10.47" fill="url(#bankPillar)"/>
<path stroke="#404040" stroke-width="0.5" fill="#e0e0e0" d="M 22.7,86.3 L 38,81.19 53.3,86.3" stroke-linecap="round"/>
<rect x="22.7" y="86.55" width="30.6" height="3.4" stroke="#404040" stroke-width="0.5" fill="#f2f2f2"/>
<rect x="21" y="102.96" width="34" height="2.04" stroke="#404040" stroke-width="0.5" fill="#f2f2f2"/>
<rect x="22.7" y="100.91" width="30.6" height="2.04" stroke="#404040" stroke-width="0.5" fill="#f2f2f2"/>
<rect x="115.08" y="30" width="25.84" height="10.47" fill="#ffffff"/>
<rect x="115.08" y="30" width="3.74" height="10.47" fill="url(#bankPillar)"/>
<rect x="122.44" y="30" width="3.74" height="10.47" fill="url(#bankPillar)"/>
<rect x="129.81" y="30" width="3.74" height="10.47" fill="url(#bankPillar)"/>
<rect x="137.18" y="30" width="3.74" height="10.47" fill="url(#bankPillar)"/>
<path stroke="#404040" stroke-width="0.5" fill="#e0e0e0" d="M 112.7,26.1 L 128,21 143.3,26.1" stroke-linecap="round"/>
<rect x="112.7" y="26.35" width="30.6" height="3.4" stroke="#404040" stroke-width="0.5" fill="#f2f2f2"/>
<rect x="111" y="42.76" width="34" height="2.04" stroke="#404040" stroke-width="0.5" fill="#f2f2f2"/>
<rect x="112.7" y="40.72" width="30.6" height="2.04" stroke="#404040" stroke-width="0.5" fill="#f2f2f2"/>
<rect x="115.08" y="90.2" width="25.84" height="10.47" fill="#ffffff"/>
<rect x="115.08" y="90.2" width="3.74" height="10.47" fill="url(#bankPillar)"/>
<rect x="122.44" y="90.2" width="3.74" height="10.47" fill="url(#bankPillar)"/>
<rect x="129.81" y="90.2" width="3.74" height="10.47" fill="url(#bankPillar)"/>
<rect x="137.18" y="90.2" width="3.74" height="10.47" fill="url(#bankPillar)"/>
<path stroke="#404040" stroke-width="0.5" fill="#e0e0e0" d="M 112.7,86.3 L 128,81.19 143.3,86.3" stroke-linecap="round"/>
<rect x="112.7" y="86.55" width="30.6" height="3.4" stroke="#404040" stroke-width="0.5" fill="#f2f2f2"/>
<rect x="111" y="102.96" width="34" height="2.04" stroke="#404040" stroke-width="0.5" fill="#f2f2f2"/>
<rect x="112.7" y="100.91" width="30.6" height="2.04" stroke="#404040" stroke-width="0.5" fill="#f2f2f2"/>
  <g fill="#0000ff">
    <path d="m 180.92975,104.02825 q 0,-2.49512 1.33984,-3.90332 1.33985,-1.415038 3.45899,-1.415038 1.38769,0 2.50195,0.663086 1.11426,0.663082 1.69531,1.852542 0.58789,1.18261 0.58789,2.68652 0,1.52441 -0.61523,2.72754 -0.61524,1.20312 -1.74317,1.8252 -1.12793,0.61523 -2.43359,0.61523 -1.41504,0 -2.5293,-0.68359 -1.11425,-0.6836 -1.68847,-1.86622 -0.57422,-1.18261 -0.57422,-2.50195 z m 1.36719,0.0205 q 0,1.81152 0.9707,2.85742 0.97754,1.03906 2.44726,1.03906 1.49708,0 2.46094,-1.05273 0.97071,-1.05273 0.97071,-2.98731 0,-1.22363 -0.417,-2.13281 -0.41015,-0.91601 -1.20996,-1.41504 -0.79297,-0.505856 -1.78418,-0.505856 -1.4082,0 -2.42676,0.970706 -1.01171,0.96386 -1.01171,3.22656 z" />
    <path d="m 192.05865,111.69134 v -10.04199 h 1.1211 v 0.94335 q 0.39648,-0.55371 0.89551,-0.82714 0.49902,-0.28028 1.20996,-0.28028 0.92968,0 1.64062,0.47852 0.71094,0.47851 1.07324,1.35351 0.36231,0.86817 0.36231,1.90723 0,1.11426 -0.40332,2.00977 -0.39649,0.88867 -1.16211,1.36718 -0.75879,0.47168 -1.59961,0.47168 -0.61523,0 -1.10742,-0.25976 -0.48535,-0.25977 -0.79981,-0.65625 v 3.53418 z m 1.11426,-6.3711 q 0,1.40137 0.56739,2.07129 0.56738,0.66992 1.37402,0.66992 0.82031,0 1.40137,-0.69042 0.58789,-0.69727 0.58789,-2.15333 0,-1.38769 -0.57422,-2.07812 -0.56738,-0.69043 -1.36035,-0.69043 -0.78614,0 -1.39453,0.73828 -0.60157,0.73145 -0.60157,2.13281 z" />
    <path d="m 204.82135,106.57122 1.27148,0.15723 q -0.30078,1.11425 -1.11425,1.72949 -0.81348,0.61523 -2.07813,0.61523 -1.59277,0 -2.5293,-0.97754 -0.92968,-0.98437 -0.92968,-2.75488 0,-1.83203 0.94336,-2.84375 0.94336,-1.01172 2.44726,-1.01172 1.45606,0 2.37891,0.99121 0.92285,0.99121 0.92285,2.78907 0,0.10937 -0.007,0.32812 h -5.41406 q 0.0684,1.19629 0.67676,1.83203 0.6084,0.63574 1.51758,0.63574 0.67676,0 1.15527,-0.35546 0.47852,-0.35547 0.75879,-1.13477 z m -4.04004,-1.98926 h 4.05371 q -0.082,-0.91601 -0.46484,-1.37402 -0.58789,-0.71094 -1.52442,-0.71094 -0.84765,0 -1.42871,0.56738 -0.57422,0.56739 -0.63574,1.51758 z" />
    <path d="m 207.64459,108.90911 v -7.25976 h 1.10742 v 1.03222 q 0.79981,-1.19629 2.31055,-1.19629 0.65625,0 1.20313,0.23926 0.55371,0.23242 0.82714,0.61524 0.27344,0.38281 0.38282,0.90917 0.0684,0.3418 0.0684,1.19629 v 4.46387 h -1.23047 v -4.41601 q 0,-0.75196 -0.14356,-1.1211 -0.14355,-0.37597 -0.51269,-0.59472 -0.36231,-0.22559 -0.85449,-0.22559 -0.78614,0 -1.36036,0.49902 -0.56738,0.49903 -0.56738,1.89356 v 3.96484 z" />
    <path d="M 219.42291,108.90911 V 98.887627 h 3.75977 q 1.14844,0 1.83887,0.307617 0.69726,0.300781 1.08691,0.936526 0.39648,0.6289 0.39648,1.31933 0,0.64258 -0.34863,1.20996 -0.34863,0.56739 -1.05273,0.91602 0.90918,0.2666 1.39453,0.90918 0.49219,0.64258 0.49219,1.51758 0,0.7041 -0.30079,1.3125 -0.29394,0.60156 -0.73144,0.92969 -0.4375,0.32812 -1.10059,0.49902 -0.65625,0.16406 -1.61328,0.16406 z m 1.32617,-5.81055 h 2.167 q 0.88183,0 1.26465,-0.11621 0.50585,-0.15039 0.75878,-0.49902 0.25977,-0.34863 0.25977,-0.875 0,-0.49902 -0.23926,-0.875 -0.23926,-0.38281 -0.68359,-0.51953 -0.44434,-0.14356 -1.52442,-0.14356 h -2.00293 z m 0,4.62793 h 2.49512 q 0.64258,0 0.90235,-0.0478 0.458,-0.082 0.76562,-0.27344 0.30762,-0.1914 0.50586,-0.55371 0.19824,-0.36914 0.19824,-0.84765 0,-0.56055 -0.28711,-0.97071 -0.28711,-0.41699 -0.7998,-0.58105 -0.50586,-0.1709 -1.46289,-0.1709 h -2.31739 z" />
    <path d="m 233.40924,108.0136 q -0.68359,0.58106 -1.31934,0.82032 -0.6289,0.23925 -1.35351,0.23925 -1.19629,0 -1.83887,-0.58105 -0.64258,-0.58789 -0.64258,-1.49707 0,-0.5332 0.23926,-0.9707 0.2461,-0.44434 0.63574,-0.71094 0.39649,-0.2666 0.88868,-0.40332 0.3623,-0.0957 1.09375,-0.18457 1.49023,-0.17774 2.19433,-0.42383 0.007,-0.25293 0.007,-0.32129 0,-0.75195 -0.34864,-1.05957 -0.47167,-0.41699 -1.40136,-0.41699 -0.86817,0 -1.28516,0.30761 -0.41015,0.30079 -0.6084,1.07325 l -1.20312,-0.16407 q 0.16406,-0.77246 0.54004,-1.24414 0.37597,-0.47851 1.08691,-0.73144 0.71094,-0.25977 1.64746,-0.25977 0.92969,0 1.51074,0.21875 0.58106,0.21875 0.8545,0.55371 0.27343,0.32813 0.38281,0.83399 0.0615,0.31445 0.0615,1.13476 v 1.64063 q 0,1.71582 0.0752,2.17383 0.082,0.45117 0.31445,0.86816 h -1.28516 q -0.1914,-0.38281 -0.24609,-0.89551 z m -0.10254,-2.74804 q -0.66992,0.27343 -2.00976,0.46484 -0.75879,0.10938 -1.07325,0.24609 -0.31445,0.13672 -0.48535,0.40332 -0.1709,0.25977 -0.1709,0.58106 0,0.49219 0.36914,0.82031 0.37598,0.32813 1.09375,0.32813 0.71094,0 1.26465,-0.30762 0.55371,-0.31445 0.81348,-0.85449 0.19824,-0.417 0.19824,-1.23047 z" />
    <path d="m 236.4649,108.90911 v -7.25976 h 1.10743 v 1.03222 q 0.7998,-1.19629 2.31054,-1.19629 0.65625,0 1.20313,0.23926 0.55371,0.23242 0.82715,0.61524 0.27343,0.38281 0.38281,0.90917 0.0684,0.3418 0.0684,1.19629 v 4.46387 h -1.23047 v -4.41601 q 0,-0.75196 -0.14355,-1.1211 -0.14356,-0.37597 -0.5127,-0.59472 -0.3623,-0.22559 -0.85449,-0.22559 -0.78613,0 -1.36035,0.49902 -0.56739,0.49903 -0.56739,1.89356 v 3.96484 z" />
    <path d="M 244.26471,108.90911 V 98.887627 h 1.23047 v 5.714843 l 2.91211,-2.95312 h 1.59277 l -2.77539,2.69335 3.05566,4.56641 h -1.51757 l -2.39942,-3.71191 -0.86816,0.83398 v 2.87793 z" />
    <path d="m 251.26471,100.30267 v -1.415043 h 1.23047 v 1.415043 z m 0,8.60644 v -7.25976 h 1.23047 v 7.25976 z" />
    <path d="m 254.37506,108.90911 v -7.25976 h 1.10742 v 1.03222 q 0.79981,-1.19629 2.31055,-1.19629 0.65625,0 1.20312,0.23926 0.55372,0.23242 0.82715,0.61524 0.27344,0.38281 0.38282,0.90917 0.0684,0.3418 0.0684,1.19629 v 4.46387 h -1.23047 v -4.41601 q 0,-0.75196 -0.14356,-1.1211 -0.14355,-0.37597 -0.51269,-0.59472 -0.36231,-0.22559 -0.8545,-0.22559 -0.78613,0 -1.36035,0.49902 -0.56738,0.49903 -0.56738,1.89356 v 3.96484 z" />
    <path d="m 261.94244,109.51067 1.19629,0.17774 q 0.0752,0.55371 0.417,0.80664 0.458,0.3418 1.25097,0.3418 0.85449,0 1.31934,-0.3418 0.46484,-0.3418 0.6289,-0.95703 0.0957,-0.37598 0.0889,-1.5791 -0.80664,0.95019 -2.00976,0.95019 -1.49707,0 -2.31739,-1.08008 -0.82031,-1.08008 -0.82031,-2.59082 0,-1.03906 0.37598,-1.91406 0.37597,-0.88184 1.08691,-1.36035 0.71777,-0.47852 1.68164,-0.47852 1.28516,0 2.11914,1.03907 v -0.875 h 1.13477 v 6.27539 q 0,1.69531 -0.34864,2.39941 -0.34179,0.71094 -1.09375,1.12109 -0.74511,0.41016 -1.83886,0.41016 -1.29883,0 -2.09864,-0.58789 -0.7998,-0.58106 -0.77246,-1.75684 z m 1.01856,-4.36132 q 0,1.42871 0.56738,2.08496 0.56738,0.65625 1.42188,0.65625 0.84765,0 1.42187,-0.64942 0.57422,-0.65625 0.57422,-2.05078 0,-1.33301 -0.59473,-2.00976 -0.58789,-0.67676 -1.42187,-0.67676 -0.82031,0 -1.39453,0.66992 -0.57422,0.66309 -0.57422,1.97559 z" />
  </g>
 <text fill="#000000" font-family="serif" font-size="24" id="svg_66" stroke-dasharray="null" stroke-linecap="null" stroke-linejoin="null" stroke-width="0" style="cursor: text;" text-anchor="middle" x="222.875" xml:space="preserve" y="81.125">FINASTRA</text>
 <g transform="matrix(0.92713284,0.41686453,-0.44236008,0.98383654,45.994868,-56.25182)" fill="#009fff" fill-opacity="0.2">
    <path d="m 53.623411,99.595757 h -5.140625 l 0,-30.542969 h 5.140625 z m 0.355469,-35.65625 -5.851562,0 0,-5.332031 5.851562,0 z" />
    <path d="M 85.178099,99.595757 H 80.037474 V 82.205132 c 0,-1.403646 -0.07292,-2.707032 -0.21875,-3.910156 -0.127604,-1.221354 -0.382812,-2.196615 -0.765625,-2.925781 -0.419271,-0.765626 -1.002604,-1.33073 -1.75,-1.695313 -0.747396,-0.382813 -1.768229,-0.574219 -3.0625,-0.574219 -1.276042,0 -2.597657,0.346354 -3.964844,1.039063 -1.348958,0.674479 -2.670573,1.558594 -3.964844,2.652344 l 0,22.804687 h -5.140625 l 0,-30.542969 h 5.140625 l 0,3.390625 c 1.53125,-1.367188 3.044271,-2.415365 4.539063,-3.144531 1.494791,-0.729167 3.071614,-1.09375 4.730469,-1.09375 3.007812,0 5.359374,0.993489 7.054687,2.980469 1.695313,1.96875 2.542969,4.830729 2.542969,8.585937 z" />
    <path d="M 106.6156,84.255913 H 91.193724 l 0,-4.949218 H 106.6156 Z" />
    <path d="m 136.8031,99.595757 -5.14063,0 V 82.205132 c 0,-1.403646 -0.0729,-2.707032 -0.21875,-3.910156 -0.1276,-1.221354 -0.38281,-2.196615 -0.76562,-2.925781 -0.41927,-0.765626 -1.00261,-1.33073 -1.75,-1.695313 -0.74739,-0.382813 -1.76823,-0.574219 -3.0625,-0.574219 -1.27604,0 -2.59765,0.346354 -3.96484,1.039063 -1.34896,0.674479 -2.67058,1.558594 -3.96485,2.652344 v 22.804687 l -5.14062,0 V 57.048882 h 5.14062 v 15.394531 c 1.53125,-1.367188 3.04427,-2.415365 4.53906,-3.144531 1.49479,-0.729167 3.07162,-1.09375 4.73047,-1.09375 3.00781,0 5.35938,0.993489 7.05469,2.980469 1.69531,1.96875 2.19089,4.845415 2.54297,8.585937 z" />
    <path d="m 169.20544,84.337945 c 0,5.140624 -1.23958,9.114583 -3.71875,11.921875 -2.47917,2.789062 -5.77864,4.18359 -9.89843,4.18359 -4.2474,0 -7.59245,-1.440101 -10.03516,-4.320309 -2.42448,-2.898438 -3.63672,-6.826823 -3.63672,-11.785156 0,-5.104167 1.2487,-9.069011 3.74609,-11.894532 2.51563,-2.825521 5.82422,-4.238281 9.92579,-4.238281 4.11979,0 7.41926,1.41276 9.89843,4.238281 2.47917,2.807292 3.71875,6.772136 3.71875,11.894532 z m -5.30468,0 c 0,-3.95573 -0.72005,-6.890626 -2.16016,-8.804688 -1.44011,-1.932292 -3.49089,-2.898437 -6.15234,-2.898437 -2.67969,0 -4.74871,0.966145 -6.20704,2.898437 -1.4401,1.914062 -2.16015,4.848958 -2.16015,8.804688 0,3.828124 0.72005,6.735676 2.16015,8.722656 1.45833,1.96875 3.52735,2.953125 6.20704,2.953125 2.64323,0 4.68489,-0.966146 6.125,-2.898438 1.45833,-1.950521 2.1875,-4.876302 2.1875,-8.777343 z" />
    <path d="m 198.27185,99.595757 h -5.14063 v -3.390625 c -1.58593,1.385416 -3.08984,2.442708 -4.51171,3.171875 -1.42188,0.710933 -3.00782,1.066403 -4.75782,1.066403 -1.33073,0 -2.58854,-0.21875 -3.77343,-0.656247 -1.16667,-0.4375 -2.1875,-1.130209 -3.0625,-2.078125 -0.875,-0.947917 -1.5586,-2.141927 -2.05079,-3.582031 -0.47395,-1.440104 -0.71093,-3.190104 -0.71093,-5.25 l 0,-19.824219 5.14062,0 v 17.390625 c 0,1.622396 0.0547,2.971354 0.16406,4.046875 0.12761,1.057292 0.40105,1.986979 0.82032,2.789063 0.41927,0.783854 0.98437,1.358072 1.69531,1.722656 0.72917,0.364583 1.76823,0.546875 3.11719,0.546875 1.25781,0 2.59766,-0.355469 4.01953,-1.066406 1.42187,-0.710938 2.72526,-1.585938 3.91015,-2.625 l 0,-22.804688 5.14063,0 z" />
    <path d="m 214.02185,100.33404 c -2.04167,0 -3.95573,-0.27344 -5.74219,-0.820314 -1.76823,-0.546876 -3.23567,-1.130209 -4.40234,-1.75 v -5.769531 l 0.27344,0 c 0.4375,0.346354 0.94792,0.729166 1.53125,1.148437 0.60156,0.41927 1.39453,0.85677 2.3789,1.3125 0.875,0.401042 1.83203,0.75651 2.8711,1.066406 1.05729,0.309896 2.15104,0.464844 3.28125,0.464844 0.82031,0 1.69531,-0.09115 2.625,-0.273437 0.92969,-0.200522 1.62239,-0.446616 2.07812,-0.738282 0.63802,-0.419271 1.09375,-0.865885 1.36719,-1.339843 0.29167,-0.473959 0.4375,-1.184897 0.4375,-2.132813 0,-1.221354 -0.33724,-2.141927 -1.01172,-2.761719 -0.65625,-0.619792 -1.83203,-1.139323 -3.52734,-1.558593 -0.65625,-0.164063 -1.51303,-0.355469 -2.57032,-0.574219 -1.05729,-0.21875 -2.03255,-0.45573 -2.92578,-0.710938 -2.33333,-0.674479 -4.02865,-1.713541 -5.08594,-3.117187 -1.05729,-1.421876 -1.58593,-3.135417 -1.58593,-5.140625 0,-2.752604 1.03906,-4.994792 3.11718,-6.726563 2.07813,-1.731771 4.83985,-2.597656 8.28516,-2.597656 1.69531,0 3.39974,0.209635 5.11328,0.628906 1.71354,0.419271 3.15364,0.947917 4.32031,1.585938 l 0,5.496094 h -0.27343 c -1.3125,-1.039063 -2.77995,-1.859376 -4.40235,-2.460938 -1.60417,-0.601563 -3.22656,-0.902344 -4.86718,-0.902344 -1.69531,0 -3.1263,0.355469 -4.29297,1.066407 -1.16667,0.710937 -1.75,1.786458 -1.75,3.226562 0,1.276042 0.34635,2.233073 1.03906,2.871094 0.69271,0.619791 1.80469,1.130208 3.33594,1.53125 0.76562,0.20052 1.61328,0.401041 2.54297,0.601562 0.94791,0.182292 1.9414,0.401042 2.98046,0.65625 2.26042,0.565104 3.95573,1.503907 5.08594,2.816407 1.14844,1.3125 1.72266,3.098958 1.72266,5.359375 0,1.3125 -0.26432,2.561197 -0.79297,3.746093 -0.51042,1.166666 -1.26693,2.169271 -2.26953,3.007813 -1.09375,0.911458 -2.33334,1.604166 -3.71875,2.078125 -1.36719,0.473959 -3.08984,0.710939 -5.16797,0.710939 z" />
    <path d="m 244.07263,100.30669 c -4.86719,0 -8.64974,-1.367183 -11.34766,-4.101558 -2.67969,-2.752604 -4.01953,-6.653646 -4.01953,-11.703125 0,-4.976563 1.30339,-8.932292 3.91016,-11.867187 2.60677,-2.953126 6.01563,-4.429688 10.22656,-4.429688 1.89583,0 3.57292,0.273437 5.03125,0.820313 1.45833,0.546874 2.73438,1.403645 3.82813,2.570312 1.09375,1.166666 1.93229,2.597656 2.51562,4.292969 0.58333,1.677083 0.875,3.736979 0.875,6.179687 v 2.789063 l -21.16406,0 c 0,3.554687 0.89323,6.270833 2.67969,8.148437 1.78645,1.877604 4.2565,2.816407 7.41015,2.816407 1.13021,0 2.23308,-0.127605 3.3086,-0.382813 1.09375,-0.255208 2.07812,-0.583333 2.95312,-0.984375 0.92969,-0.419271 1.71354,-0.820313 2.35156,-1.203125 0.63803,-0.401042 1.16667,-0.77474 1.58594,-1.121094 l 0.30078,0 v 5.605469 c -0.60156,0.236979 -1.34895,0.53776 -2.24218,0.902344 -0.89323,0.346354 -1.69532,0.619791 -2.40625,0.820312 -1.00261,0.273438 -1.91407,0.483073 -2.73438,0.628902 -0.80208,0.14584 -1.82291,0.21875 -3.0625,0.21875 z m 6.01563,-19.386714 c -0.0365,-1.385417 -0.20053,-2.579427 -0.49219,-3.582031 -0.29167,-1.002605 -0.71094,-1.850261 -1.25781,-2.542969 -0.60157,-0.765626 -1.37631,-1.348959 -2.32422,-1.75 -0.92969,-0.401042 -2.08724,-0.601563 -3.47266,-0.601563 -1.36719,0 -2.53385,0.209635 -3.5,0.628907 -0.94791,0.401041 -1.8138,0.993489 -2.59766,1.777343 -0.76562,0.802083 -1.34895,1.695312 -1.75,2.679688 -0.40104,0.966146 -0.65625,2.096354 -0.76562,3.390625 z" />
  </g>
 </svg>
